<?xml version="1.0" encoding="UTF-8" standalone="no"?>
<svg
   width="31.921286"
   height="31.389364"
   version="1.1"
   id="svg1"
   xmlns="http://www.w3.org/2000/svg"
   xmlns:svg="http://www.w3.org/2000/svg">
  <defs
     id="defs1" />
  <path
     fill-rule="evenodd"
     clip-rule="evenodd"
     d="M 15.973849,0 C 7.1407233,0 0,7.1933656 0,16.09254 c 0,7.113585 4.5753075,13.135086 10.922472,15.266284 0.793559,0.160215 1.084236,-0.346263 1.084236,-0.772306 0,-0.373074 -0.02616,-1.651859 -0.02616,-2.984266 -4.4435377,0.959333 -5.3688661,-1.91834 -5.3688661,-1.91834 -0.714105,-1.865043 -1.7721837,-2.344383 -1.7721837,-2.344383 -1.4543677,-0.985818 0.1059387,-0.985818 0.1059387,-0.985818 1.6132757,0.106592 2.4598041,1.651858 2.4598041,1.651858 1.427883,2.450976 3.728779,1.758451 4.654435,1.332081 0.132096,-1.039115 0.555524,-1.758451 1.005109,-2.15801 -3.5440406,-0.373074 -7.2728198,-1.758451 -7.2728198,-7.939841 0,-1.758451 0.6343241,-3.197124 1.6394335,-4.316019 -0.1585811,-0.399559 -0.7141051,-2.051744 0.1589079,-4.2630504 0,0 1.3487561,-0.4263704 4.3899154,1.6518584 a 15.357836,15.357836 0 0 1 3.993625,-0.5329631 c 1.348756,0 2.72367,0.1867006 3.993299,0.5329631 3.041486,-2.0782288 4.390242,-1.6518584 4.390242,-1.6518584 0.873013,2.2113064 0.317162,3.8634914 0.158581,4.2630504 1.031594,1.118895 1.63976,2.557568 1.63976,4.316019 0,6.18139 -3.728779,7.539955 -7.299304,7.939841 0.582009,0.506151 1.084237,1.465158 1.084237,2.983939 0,2.158009 -0.02616,3.889976 -0.02616,4.422612 0,0.42637 0.291004,0.932848 1.084236,0.77296 C 27.345906,29.227299 31.921214,23.206125 31.921214,16.09254 31.947372,7.1933656 24.780491,0 15.973849,0 Z"
     fill="#24292f"
     id="path1"
     style="fill:#ffffff;stroke-width:0.326971" />
</svg>
