<?xml version="1.0" encoding="UTF-8" standalone="no"?>
<svg
   width="366.353"
   height="95.375"
   fill="none"
   version="1.1"
   id="svg1"
   sodipodi:docname="logo.svg"
   inkscape:version="1.4 (86a8ad7, 2024-10-11)"
   xmlns:inkscape="http://www.inkscape.org/namespaces/inkscape"
   xmlns:sodipodi="http://sodipodi.sourceforge.net/DTD/sodipodi-0.dtd"
   xmlns="http://www.w3.org/2000/svg"
   xmlns:svg="http://www.w3.org/2000/svg">
  <defs
     id="defs1" />
  <sodipodi:namedview
     id="namedview1"
     pagecolor="#ffffff"
     bordercolor="#000000"
     borderopacity="0.25"
     inkscape:showpageshadow="2"
     inkscape:pageopacity="0.0"
     inkscape:pagecheckerboard="0"
     inkscape:deskcolor="#d1d1d1"
     inkscape:zoom="3.2646109"
     inkscape:cx="202.01488"
     inkscape:cy="62.335146"
     inkscape:window-width="2560"
     inkscape:window-height="1369"
     inkscape:window-x="2552"
     inkscape:window-y="-8"
     inkscape:window-maximized="1"
     inkscape:current-layer="svg1" />
  <path
     d="M23.063 22.444c4.596 0 8.78 1.126 12.553 3.377 3.804 2.25 6.832 5.278 9.082 9.082 2.25 3.772 3.377 7.973 3.377 12.601 0 3.455-.65 6.705-1.95 9.748a25.469 25.469 0 01-5.421 7.988 25.31 25.31 0 01-7.941 5.374c-3.012 1.3-6.245 1.95-9.701 1.95-4.216 0-7.846-1.015-10.889-3.044-3.011-2.029-5.358-4.692-7.037-7.989v9.796H0V0h5.136v33.476c1.68-3.296 4.026-5.96 7.037-7.988 3.043-2.03 6.673-3.044 10.89-3.044zm-.048 45.079c3.677 0 7.006-.904 9.986-2.71a20.365 20.365 0 007.18-7.229c1.806-3.043 2.71-6.403 2.71-10.08 0-3.74-.919-7.117-2.758-10.129-1.839-3.043-4.263-5.452-7.275-7.227-2.98-1.775-6.261-2.663-9.843-2.663-3.646 0-6.784.904-9.415 2.71-2.6 1.807-4.597 4.232-5.992 7.275-1.394 3.044-2.092 6.388-2.092 10.034 0 3.74.698 7.117 2.092 10.128 1.427 3.012 3.44 5.421 6.04 7.228 2.63 1.775 5.753 2.663 9.367 2.663zm27.85-43.747h5.136v47.551h-5.135zm2.615-8.988c-.887 0-1.648-.285-2.282-.856-.603-.602-.904-1.346-.904-2.234 0-.888.301-1.617.904-2.188.634-.602 1.395-.904 2.282-.904a2.98 2.98 0 012.188.904c.634.57.95 1.3.95 2.188 0 .888-.3 1.632-.903 2.235-.602.57-1.347.856-2.235.856zm46.971 8.988h5.136v49.548c0 2.948-.65 5.722-1.95 8.322a22.638 22.638 0 01-5.183 6.943 24.57 24.57 0 01-7.465 4.755 21.67 21.67 0 01-8.56 1.759c-3.297 0-6.482-.777-9.557-2.33a25.643 25.643 0 01-7.99-6.134c-2.218-2.568-3.755-5.373-4.611-8.417l4.755-2.187c.57 2.568 1.743 4.897 3.519 6.99a19.86 19.86 0 006.324 5.04c2.472 1.236 4.993 1.855 7.56 1.855a17.34 17.34 0 006.658-1.331 19.766 19.766 0 005.801-3.662 17.124 17.124 0 004.042-5.278 13.774 13.774 0 001.521-6.325v-11.65c-1.68 3.233-4.01 5.865-6.99 7.894-2.98 1.996-6.45 2.995-10.413 2.995-3.297 0-6.404-.65-9.32-1.95a24.067 24.067 0 01-7.656-5.373c-2.187-2.314-3.915-4.977-5.183-7.988-1.237-3.011-1.855-6.245-1.855-9.7 0-3.456.618-6.69 1.855-9.701 1.268-3.043 2.996-5.706 5.183-7.989a23.713 23.713 0 017.655-5.42c2.917-1.3 6.024-1.95 9.32-1.95 3.964 0 7.434.998 10.415 2.996 2.979 1.965 5.31 4.596 6.99 7.893zM83.095 67.523c3.55 0 6.594-.92 9.13-2.758 2.568-1.839 4.533-4.28 5.897-7.323 1.394-3.043 2.092-6.34 2.092-9.89 0-3.646-.698-6.975-2.092-9.986-1.396-3.044-3.377-5.484-5.945-7.323-2.567-1.84-5.595-2.758-9.082-2.758-3.487 0-6.657.904-9.51 2.71-2.853 1.807-5.12 4.232-6.8 7.275-1.68 3.044-2.52 6.404-2.52 10.081 0 3.71.856 7.07 2.568 10.081 1.712 3.012 3.994 5.421 6.847 7.228 2.853 1.775 5.992 2.663 9.415 2.663zm87.817-13.273v39.5h-15.25v-35.5c0-2.458-.604-4.688-1.812-6.688a13.169 13.169 0 00-4.875-4.812c-2-1.208-4.23-1.813-6.688-1.813-2.458 0-4.708.605-6.75 1.813-2 1.167-3.604 2.77-4.812 4.813-1.167 2-1.75 4.229-1.75 6.687v35.5h-15.25L113.662 0h15.25l.063 36.813c2.125-2.25 4.667-4.021 7.625-5.313 2.958-1.333 6.146-2 9.562-2 4.542 0 8.688 1.125 12.438 3.375 3.75 2.208 6.729 5.188 8.937 8.938 2.25 3.708 3.375 7.854 3.375 12.437zm31.857 41.125c-5.75 0-11-1.48-15.75-4.438C182.31 87.979 178.539 84 175.706 79c-2.791-5-4.187-10.52-4.187-16.563 0-4.541.812-8.791 2.437-12.75 1.625-4 3.855-7.5 6.688-10.5a31.362 31.362 0 0110-7.124c3.792-1.709 7.833-2.563 12.125-2.563 4.875 0 9.333 1.042 13.375 3.125a30.407 30.407 0 0110.375 8.438c2.833 3.583 4.896 7.666 6.187 12.25 1.292 4.583 1.584 9.374.875 14.374h-45.687c.583 2.334 1.542 4.438 2.875 6.313 1.333 1.833 3.02 3.313 5.062 4.438 2.042 1.083 4.355 1.645 6.938 1.687 2.667.042 5.083-.583 7.25-1.875 2.208-1.333 4.042-3.125 5.5-5.375L231.08 76.5c-2.541 5.542-6.333 10.083-11.375 13.625-5.041 3.5-10.687 5.25-16.937 5.25zM187.394 56.25h30.75a15.857 15.857 0 00-2.938-6.75 16.456 16.456 0 00-5.437-4.875 14.142 14.142 0 00-7-1.813c-2.5 0-4.813.605-6.938 1.813-2.125 1.167-3.937 2.77-5.437 4.813-1.458 2-2.458 4.27-3 6.812zm96.85-25h15.25v62.5h-15.25l-.687-7.75c-1.708 2.792-3.98 5.063-6.812 6.813-2.792 1.708-6.105 2.562-9.938 2.562-4.625 0-8.958-.875-13-2.625a34.169 34.169 0 01-10.687-7.25c-3.042-3.083-5.438-6.646-7.188-10.688-1.708-4.041-2.562-8.374-2.562-13 0-4.458.812-8.645 2.437-12.562 1.667-3.917 3.979-7.354 6.938-10.313A32.542 32.542 0 01252.995 32c3.875-1.667 8.04-2.5 12.5-2.5 4.125 0 7.812.917 11.062 2.75 3.292 1.833 6.083 4.167 8.375 7zm-17.812 49.438c3.25 0 6.125-.813 8.625-2.438 2.5-1.625 4.458-3.813 5.875-6.563 1.417-2.791 2.125-5.854 2.125-9.187 0-3.375-.708-6.438-2.125-9.188-1.417-2.791-3.396-5-5.937-6.624-2.5-1.626-5.355-2.438-8.563-2.438s-6.146.833-8.812 2.5c-2.625 1.625-4.73 3.813-6.313 6.563-1.542 2.75-2.312 5.812-2.312 9.187 0 3.375.79 6.438 2.375 9.188 1.583 2.75 3.687 4.937 6.312 6.562 2.667 1.625 5.583 2.438 8.75 2.438zM351.102 0h15.25v93.75h-15.25v-7.813c-2 2.792-4.52 5.063-7.562 6.813-3.041 1.75-6.562 2.625-10.562 2.625-4.542 0-8.792-.854-12.75-2.563a34.014 34.014 0 01-10.5-7.062 34.02 34.02 0 01-7.063-10.5c-1.708-3.958-2.562-8.208-2.562-12.75s.854-8.792 2.562-12.75c1.709-3.958 4.063-7.438 7.063-10.438a33.481 33.481 0 0110.5-7.124c3.958-1.709 8.208-2.563 12.75-2.563 4 0 7.52.875 10.562 2.625a22.812 22.812 0 017.563 6.813zm-17.937 80.688c3.25 0 6.125-.813 8.625-2.438 2.5-1.625 4.459-3.813 5.875-6.563 1.417-2.791 2.125-5.854 2.125-9.187 0-3.375-.708-6.438-2.125-9.188-1.416-2.791-3.395-5-5.937-6.624-2.5-1.626-5.354-2.438-8.563-2.438-3.208 0-6.145.833-8.812 2.5-2.625 1.625-4.73 3.813-6.313 6.563-1.541 2.75-2.312 5.812-2.312 9.187 0 3.375.792 6.438 2.375 9.188 1.583 2.75 3.687 4.937 6.312 6.562 2.667 1.625 5.584 2.438 8.75 2.438z"
     fill="#000"
     id="path1"
     style="fill:#ffffff" />
</svg>
