<svg width="401" height="126" fill="none" xmlns="http://www.w3.org/2000/svg"><path d="M30.813 29.75c6.041 0 11.541 1.48 16.5 4.438 5 2.958 8.979 6.937 11.937 11.937 2.958 4.958 4.438 10.48 4.438 16.563 0 4.541-.855 8.812-2.563 12.812A33.475 33.475 0 0154 86c-3 3-6.48 5.354-10.438 7.063-3.958 1.708-8.208 2.562-12.75 2.562-5.541 0-10.312-1.333-14.312-4-3.958-2.667-7.042-6.167-9.25-10.5V94H.5V.25h6.75v44c2.208-4.333 5.292-7.833 9.25-10.5 4-2.667 8.77-4 14.313-4zM30.75 89c4.833 0 9.208-1.188 13.125-3.563 3.958-2.374 7.104-5.541 9.438-9.5 2.374-4 3.562-8.416 3.562-13.25 0-4.916-1.208-9.354-3.625-13.312-2.417-4-5.604-7.167-9.563-9.5-3.916-2.333-8.229-3.5-12.937-3.5-4.792 0-8.917 1.188-12.375 3.563-3.417 2.374-6.042 5.562-7.875 9.562-1.833 4-2.75 8.396-2.75 13.188 0 4.916.917 9.354 2.75 13.312 1.875 3.958 4.52 7.125 7.938 9.5C21.895 87.833 26 89 30.75 89zm36.606-57.5h6.75V94h-6.75V31.5zm3.437-11.813c-1.167 0-2.167-.375-3-1.125-.792-.791-1.188-1.77-1.188-2.937 0-1.167.396-2.125 1.188-2.875.833-.792 1.833-1.188 3-1.188 1.125 0 2.083.396 2.875 1.188.833.75 1.25 1.708 1.25 2.875s-.396 2.146-1.188 2.938c-.791.75-1.77 1.125-2.937 1.125zM132.53 31.5h6.75v65.125c0 3.875-.854 7.521-2.562 10.938a29.755 29.755 0 01-6.813 9.125 32.295 32.295 0 01-9.812 6.25c-3.625 1.541-7.375 2.312-11.25 2.312-4.334 0-8.521-1.021-12.563-3.062a33.704 33.704 0 01-10.5-8.063c-2.916-3.375-4.937-7.062-6.062-11.062l6.25-2.875c.75 3.375 2.291 6.437 4.625 9.187 2.333 2.792 5.104 5 8.312 6.625 3.25 1.625 6.563 2.438 9.938 2.438 3 0 5.916-.584 8.75-1.75a25.98 25.98 0 007.625-4.813c2.25-2 4.021-4.312 5.312-6.937 1.334-2.625 2-5.396 2-8.313V81.312c-2.208 4.25-5.271 7.709-9.187 10.376-3.917 2.624-8.479 3.937-13.688 3.937-4.333 0-8.416-.854-12.25-2.563A31.633 31.633 0 0187.343 86c-2.875-3.042-5.146-6.542-6.813-10.5-1.625-3.958-2.437-8.208-2.437-12.75s.812-8.792 2.437-12.75c1.667-4 3.938-7.5 6.813-10.5a31.167 31.167 0 0110.062-7.125c3.834-1.708 7.917-2.563 12.25-2.563 5.209 0 9.771 1.313 13.688 3.938 3.916 2.583 6.979 6.042 9.187 10.375V31.5zM109.718 89c4.666 0 8.666-1.208 12-3.625 3.375-2.417 5.958-5.625 7.75-9.625 1.833-4 2.75-8.333 2.75-13 0-4.792-.917-9.167-2.75-13.125-1.834-4-4.438-7.208-7.813-9.625s-7.354-3.625-11.937-3.625c-4.584 0-8.75 1.188-12.5 3.563-3.75 2.374-6.73 5.562-8.938 9.562-2.208 4-3.312 8.417-3.312 13.25 0 4.875 1.125 9.292 3.375 13.25s5.25 7.125 9 9.5c3.75 2.333 7.875 3.5 12.375 3.5zm94.887-34.5V94h-15.25V58.5c0-2.458-.604-4.688-1.812-6.688A13.169 13.169 0 00182.668 47c-2-1.208-4.229-1.813-6.688-1.813-2.458 0-4.708.605-6.75 1.813-2 1.167-3.604 2.77-4.812 4.813-1.167 2-1.75 4.229-1.75 6.687V94h-15.25L147.355.25h15.25l.063 36.813c2.125-2.25 4.667-4.021 7.625-5.313 2.958-1.333 6.146-2 9.562-2 4.542 0 8.688 1.125 12.438 3.375 3.75 2.208 6.729 5.188 8.937 8.938 2.25 3.708 3.375 7.854 3.375 12.437zm31.857 41.125c-5.75 0-11-1.48-15.75-4.438-4.708-2.958-8.479-6.937-11.313-11.937-2.791-5-4.187-10.52-4.187-16.563 0-4.541.812-8.791 2.437-12.75 1.625-4 3.855-7.5 6.688-10.5a31.362 31.362 0 0110-7.124c3.792-1.709 7.833-2.563 12.125-2.563 4.875 0 9.333 1.042 13.375 3.125a30.407 30.407 0 0110.375 8.438c2.833 3.583 4.896 7.666 6.187 12.25 1.292 4.583 1.584 9.374.875 14.374h-45.687c.583 2.334 1.542 4.438 2.875 6.313 1.333 1.833 3.021 3.313 5.062 4.438 2.042 1.083 4.355 1.645 6.938 1.687 2.667.042 5.083-.583 7.25-1.875 2.208-1.333 4.042-3.125 5.5-5.375l15.562 3.625c-2.541 5.542-6.333 10.083-11.375 13.625-5.041 3.5-10.687 5.25-16.937 5.25zM221.087 56.5h30.75a15.857 15.857 0 00-2.938-6.75 16.456 16.456 0 00-5.437-4.875 14.142 14.142 0 00-7-1.813c-2.5 0-4.813.605-6.938 1.813-2.125 1.167-3.937 2.77-5.437 4.813-1.458 2-2.458 4.27-3 6.812zm96.851-25h15.25V94h-15.25l-.688-7.75c-1.708 2.792-3.979 5.063-6.812 6.813-2.792 1.708-6.105 2.562-9.938 2.562-4.625 0-8.958-.875-13-2.625a34.169 34.169 0 01-10.687-7.25c-3.042-3.083-5.438-6.646-7.188-10.688-1.708-4.041-2.562-8.374-2.562-13 0-4.458.812-8.645 2.437-12.562 1.667-3.917 3.979-7.354 6.938-10.313a32.542 32.542 0 0110.25-6.937c3.875-1.667 8.041-2.5 12.5-2.5 4.125 0 7.812.917 11.062 2.75 3.292 1.833 6.083 4.167 8.375 7l-.687-8zm-17.813 49.438c3.25 0 6.125-.813 8.625-2.438 2.5-1.625 4.458-3.813 5.875-6.563 1.417-2.791 2.125-5.854 2.125-9.187 0-3.375-.708-6.438-2.125-9.188-1.417-2.791-3.396-5-5.937-6.624-2.5-1.626-5.355-2.438-8.563-2.438s-6.146.833-8.812 2.5c-2.625 1.625-4.73 3.813-6.313 6.563-1.542 2.75-2.312 5.812-2.312 9.187 0 3.375.791 6.438 2.375 9.188 1.583 2.75 3.687 4.937 6.312 6.562 2.667 1.625 5.583 2.438 8.75 2.438zM384.796.25h15.25V94h-15.25v-7.813c-2 2.792-4.521 5.063-7.563 6.813-3.041 1.75-6.562 2.625-10.562 2.625-4.542 0-8.792-.854-12.75-2.563a34.014 34.014 0 01-10.5-7.062 34.02 34.02 0 01-7.063-10.5c-1.708-3.958-2.562-8.208-2.562-12.75s.854-8.792 2.562-12.75c1.709-3.958 4.063-7.438 7.063-10.438a33.481 33.481 0 0110.5-7.124c3.958-1.709 8.208-2.563 12.75-2.563 4 0 7.521.875 10.562 2.625a22.812 22.812 0 017.563 6.813V.25zm-17.938 80.688c3.25 0 6.125-.813 8.625-2.438 2.5-1.625 4.459-3.813 5.875-6.563 1.417-2.791 2.125-5.854 2.125-9.187 0-3.375-.708-6.438-2.125-9.188-1.416-2.791-3.395-5-5.937-6.624-2.5-1.626-5.354-2.438-8.563-2.438-3.208 0-6.145.833-8.812 2.5-2.625 1.625-4.729 3.813-6.313 6.563-1.541 2.75-2.312 5.812-2.312 9.187 0 3.375.792 6.438 2.375 9.188 1.583 2.75 3.687 4.937 6.312 6.562 2.667 1.625 5.584 2.438 8.75 2.438z" fill="#082140"/></svg>